<?xml version="1.0" encoding="iso-8859-1"?>
<!-- Generator: Adobe Illustrator 19.0.0, SVG Export Plug-In . SVG Version: 6.00 Build 0)  -->
<svg version="1.1" id="Layer_1" xmlns="http://www.w3.org/2000/svg" xmlns:xlink="http://www.w3.org/1999/xlink" x="0px" y="0px"
	 viewBox="0 0 503.467 503.467" style="enable-background:new 0 0 503.467 503.467;" xml:space="preserve">
<g transform="translate(1 17)">
	<path style="fill:#FFE079;" d="M191,328.454l-8.533,85.333H319l-8.533-85.333H191z M404.333,208.987l8.533,85.333H276.333
		l8.533-85.333H404.333z M370.2,328.454l-8.533,85.333H498.2l-8.533-85.333H370.2z M216.6,208.987l8.533,85.333H88.6l8.533-85.333
		H216.6z M310.467,89.521L319,174.854H182.467L191,89.521H310.467z M11.8,328.454l-8.533,85.333H139.8l-8.533-85.333H11.8z"/>
	<polygon style="fill:#ECF4F7;" points="361.667,55.387 319,80.987 276.333,55.387 301.933,98.054 276.333,140.721 319,115.121 
		361.667,140.721 336.067,98.054 	"/>
</g>
<path style="fill:#51565F;" d="M499.2,435.054H362.667c-0.853,0-2.56-0.853-3.413-1.707c-0.853-0.853-0.853-1.707-0.853-3.413
	l8.533-85.333c0-2.56,1.707-4.267,4.267-4.267h119.467c2.56,0,4.267,1.707,4.267,4.267l8.533,85.333c0,0.853,0,2.56-0.853,3.413
	C501.76,434.2,500.053,435.054,499.2,435.054z M367.787,426.521h127.147l-7.68-76.8H375.467L367.787,426.521z M320,435.054H183.467
	c-0.853,0-2.56-0.853-3.413-1.707c-0.853-0.853-0.853-1.707-0.853-3.413l8.533-85.333c0-2.56,1.707-4.267,4.267-4.267h119.467
	c2.56,0,4.267,1.707,4.267,4.267l8.533,85.333c0,0.853,0,2.56-0.853,3.413C322.56,434.2,320.853,435.054,320,435.054z
	 M188.587,426.521h127.147l-7.68-76.8H196.267L188.587,426.521z M140.8,435.054H4.267c-0.853,0-2.56-0.853-3.413-1.707
	C0,432.494,0,431.64,0,429.934L8.533,344.6c0-2.56,1.707-4.267,4.267-4.267h119.467c2.56,0,4.267,1.707,4.267,4.267l8.533,85.333
	c0,0.853,0,2.56-0.853,3.413C143.36,434.2,141.653,435.054,140.8,435.054z M9.387,426.521h127.147l-7.68-76.8H17.067L9.387,426.521z
	 M413.867,315.587H277.333c-0.853,0-2.56-0.853-3.413-1.707c-0.853-0.853-0.853-1.707-0.853-3.413l8.533-85.333
	c0-2.56,1.707-4.267,4.267-4.267h119.467c2.56,0,4.267,1.707,4.267,4.267l8.533,85.333c0,0.853,0,2.56-0.853,3.413
	C416.427,314.734,414.72,315.587,413.867,315.587z M282.453,307.054H409.6l-7.68-76.8H290.133L282.453,307.054z M226.133,315.587
	H89.6c-0.853,0-2.56-0.853-3.413-1.707c-0.853-0.853-0.853-1.707-0.853-3.413l8.533-85.333c0-2.56,1.707-4.267,4.267-4.267H217.6
	c2.56,0,4.267,1.707,4.267,4.267l8.533,85.333c0,0.853,0,2.56-0.853,3.413C228.693,314.734,226.987,315.587,226.133,315.587z
	 M94.72,307.054h127.147l-7.68-76.8H102.4L94.72,307.054z M320,196.121H183.467c-0.853,0-2.56-0.853-3.413-1.707
	c-0.853-0.853-0.853-1.707-0.853-3.413l8.533-85.333c0-2.56,1.707-4.267,4.267-4.267h69.12c2.56,0,4.267,1.707,4.267,4.267
	s-1.707,4.267-4.267,4.267h-64.853l-7.68,76.8h127.147l-0.853-11.947c0-2.56,1.707-4.267,3.413-4.267
	c2.56,0,4.267,1.707,4.267,3.413L324.267,191c0,0.853,0,2.56-0.853,3.413C322.56,195.267,320.853,196.121,320,196.121z
	 M362.667,161.987c-0.853,0-1.707,0-2.56-0.853L320,137.241l-40.107,23.893c-1.707,0.853-3.413,0.853-5.12-0.853
	c-1.707-1.707-1.707-3.413-0.853-5.12l23.893-40.107L273.92,74.947c-0.853-1.707-0.853-3.413,0.853-5.12
	c1.707-1.707,3.413-1.707,5.12-0.853L320,92.867l40.107-23.893c1.707-0.853,3.413-0.853,5.12,0.853
	c1.707,1.707,1.707,3.413,0.853,5.12l-23.893,40.107l23.893,40.107c0.853,1.707,0.853,3.413-0.853,5.12
	C365.227,161.134,363.52,161.987,362.667,161.987z M320,127.854c0.853,0,1.707,0,2.56,0.853l28.16,17.067l-17.067-28.16
	c-0.853-1.707-0.853-3.413,0-4.267l17.067-28.16l-28.16,17.067c-1.707,0.853-3.413,0.853-4.267,0l-28.16-17.067l17.067,28.16
	c0.853,1.707,0.853,3.413,0,4.267l-17.067,28.16l28.16-17.067C318.293,127.854,319.147,127.854,320,127.854z"/>
<g>
</g>
<g>
</g>
<g>
</g>
<g>
</g>
<g>
</g>
<g>
</g>
<g>
</g>
<g>
</g>
<g>
</g>
<g>
</g>
<g>
</g>
<g>
</g>
<g>
</g>
<g>
</g>
<g>
</g>
</svg>
